<svg id="Pokémon" xmlns="http://www.w3.org/2000/svg" viewBox="0 0 213 196.03"><defs><style>.cls-1,.cls-3,.cls-7{fill:#192d2a;}.cls-1{opacity:0.1;}.cls-12,.cls-2{fill:#7fc9ac;}.cls-10,.cls-11,.cls-12,.cls-2,.cls-5,.cls-6,.cls-9{stroke:#192d2a;}.cls-12,.cls-14,.cls-2,.cls-9{stroke-linecap:round;}.cls-10,.cls-12,.cls-14,.cls-2,.cls-9{stroke-miterlimit:10;}.cls-2{stroke-width:6px;stroke-dasharray:210 10 0 10 1000;}.cls-3{opacity:0.15;}.cls-4{fill:#367a71;}.cls-5,.cls-8{fill:#fff;}.cls-11,.cls-5,.cls-6{stroke-linejoin:round;}.cls-10,.cls-11,.cls-12,.cls-14,.cls-5,.cls-6,.cls-9{stroke-width:4px;}.cls-6{fill:#bf3d59;}.cls-14,.cls-9{fill:none;}.cls-10{fill:#24544c;}.cls-11{fill:#e77374;}.cls-13{opacity:0.5;}.cls-14{stroke:#fff;}</style></defs><title>bulbasaur</title><path class="cls-1" d="M959.72,212.27c-1.26-14.78-4.33-28.91-10.06-41.41,2.28-19.33-1.18-39.19-3-47.88a5.6,5.6,0,0,0-5.77-4.48c-13.79.8-27.2,7.2-35,11.64-12.48-4.7-27.61-7.33-45.87-7.33s-33.38,2.63-45.87,7.33c-7.79-4.44-21.19-10.84-35-11.64a5.6,5.6,0,0,0-5.77,4.48c-1.86,8.69-5.32,28.55-3,47.88-5.73,12.49-8.79,26.62-10.06,41.41-2.89,33.82,16.45,59.56,54.06,71.69,13.07,4.21,32.59,7.56,45.66,7.56s32.6-3.35,45.67-7.56C943.27,271.83,962.61,246.09,959.72,212.27Z" transform="translate(-760 -95.49)"/><path class="cls-2" d="M969.72,192.27c-1.26-14.78-4.33-28.91-10.06-41.41,2.28-19.33-1.18-39.19-3-47.88a5.6,5.6,0,0,0-5.77-4.48c-13.79.8-27.2,7.2-35,11.64-12.48-4.7-27.61-7.33-45.87-7.33s-33.38,2.63-45.87,7.33c-7.79-4.44-21.19-10.84-35-11.64a5.6,5.6,0,0,0-5.77,4.48c-1.86,8.69-5.32,28.55-3,47.88-5.73,12.49-8.79,26.62-10.06,41.41-2.89,33.82,16.45,59.56,54.06,71.69,13.07,4.21,32.59,7.56,45.66,7.56s32.6-3.35,45.67-7.56C953.27,251.83,972.61,226.09,969.72,192.27Z" transform="translate(-760 -95.49)"/><path class="cls-3" d="M927.67,255c-13.07,4.22-32.6,7.56-45.67,7.56s-32.59-3.34-45.66-7.56c-37.6-12.12-56.95-37.86-54.06-71.69,1.26-14.78,4.33-28.91,10.06-41.41-1.91-16.19.2-32.74,2-42.8-1.73-.27-3.48-0.46-5.23-0.56a5.6,5.6,0,0,0-5.77,4.48c-1.86,8.69-5.32,28.55-3,47.88-5.73,12.49-8.79,26.62-10.06,41.41-2.89,33.82,16.45,59.56,54.06,71.69,13.07,4.21,32.59,7.56,45.66,7.56s32.6-3.35,45.67-7.56c14.09-4.55,25.62-11,34.38-19.09A103.62,103.62,0,0,1,927.67,255Z" transform="translate(-760 -95.49)"/><path class="cls-4" d="M856.51,130.15s22.5-9.94,28-8.58,6.64,8.29,2.88,13-11.54,16.9-17.31,18.91-13.85-2.9-17-8.38S850.48,132.68,856.51,130.15Z" transform="translate(-760 -95.49)"/><path class="cls-4" d="M880.8,160.63a2.87,2.87,0,0,1-.45-3.69c2.2-3.34,7-10.2,9.39-10.76,3.24-.75,6.12,14,4.68,15.44C893.14,162.9,885.54,164.9,880.8,160.63Z" transform="translate(-760 -95.49)"/><path class="cls-4" d="M839.83,154a2.49,2.49,0,0,0,1.12,2.47c2.34,1.48,7.26,4.43,8.7,4.07,1.92-.47-2-10.67-3.26-11.16S840.68,149.93,839.83,154Z" transform="translate(-760 -95.49)"/><path class="cls-5" d="M923,154a9.79,9.79,0,0,1,11.49-.58c6.83,4.76,9.83,14.65,9.82,29.12,0,7.57-2.32,11.66-2.79,12.37-2.1,3.16-9.92,13.68-31.88,9.24C898.21,201.79,910.58,164.27,923,154Z" transform="translate(-760 -95.49)"/><path class="cls-6" d="M927.2,204.32a54.19,54.19,0,0,0,5.16-17.67c1.95-15.72-2.36-29.44-9.79-32.57-12.41,10.47-24.64,47.71-13.23,50C916.82,205.63,922.66,205.4,927.2,204.32Z" transform="translate(-760 -95.49)"/><path class="cls-7" d="M916.19,162.24l-0.36,0a81.78,81.78,0,0,0-9.37,21.88c1.36,6.6,5.2,11.36,9.73,11.36,5.67,0,10.26-7.45,10.26-16.64S921.86,162.24,916.19,162.24Z" transform="translate(-760 -95.49)"/><ellipse class="cls-8" cx="158.51" cy="79.94" rx="4.99" ry="8.31"/><path class="cls-5" d="M817,154a9.79,9.79,0,0,0-11.49-.58c-6.83,4.76-9.83,14.65-9.82,29.12,0,7.57,2.32,11.66,2.79,12.37,2.1,3.16,9.92,13.68,31.88,9.24C841.79,201.79,829.42,164.27,817,154Z" transform="translate(-760 -95.49)"/><path class="cls-6" d="M812.14,204.32A54.19,54.19,0,0,1,807,186.65c-1.95-15.72,2.36-29.44,9.79-32.57,12.41,10.47,24.64,47.71,13.23,50C822.52,205.63,816.67,205.4,812.14,204.32Z" transform="translate(-760 -95.49)"/><path class="cls-7" d="M823.14,162.24l0.36,0a81.78,81.78,0,0,1,9.37,21.88c-1.36,6.6-5.2,11.36-9.73,11.36-5.67,0-10.26-7.45-10.26-16.64S817.48,162.24,823.14,162.24Z" transform="translate(-760 -95.49)"/><ellipse class="cls-8" cx="61.49" cy="79.94" rx="4.99" ry="8.31"/><line class="cls-9" x1="120.26" y1="116.46" x2="122.74" y2="113.98"/><line class="cls-9" x1="99.74" y1="116.46" x2="97.26" y2="113.98"/><path class="cls-10" d="M910.82,224c-15.47,1.27-41.73,10.33-41.73,10.33s-24.38-9.06-41.73-10.33c-9.81-.72-18.11-1-25.7-4,0.88,11.93,30.72,31.57,67.43,31.57S935.66,232,936.52,220C928.93,223,920.63,223.23,910.82,224Z" transform="translate(-760 -95.49)"/><path class="cls-11" d="M917.28,223.54c-2.08.16-4.23,0.32-6.46,0.5-15.47,1.27-41.73,10.33-41.73,10.33s-24.38-9.06-41.73-10.33l-6.55-.46a34.16,34.16,0,0,0-10.19,9.36c11.66,9.58,33.47,18.7,58.47,18.7s46.82-9.12,58.47-18.7A34.23,34.23,0,0,0,917.28,223.54Z" transform="translate(-760 -95.49)"/><path class="cls-12" d="M943.66,216.25c-9.55,6.68-19.88,6.72-32.84,7.79-15.47,1.27-41.73,10.33-41.73,10.33s-24.38-9.06-41.73-10.33c-13-1-23.29-1.11-32.84-7.79" transform="translate(-760 -95.49)"/><path class="cls-5" d="M824,228.78l2.84-4.78c-3.95-.28-7.65-0.51-11.16-0.87l1.59,4.9A3.72,3.72,0,0,0,824,228.78Z" transform="translate(-760 -95.49)"/><path class="cls-5" d="M912.86,228a3.72,3.72,0,0,0,6.73.75l3.28-5.52-1.06-.12c-3.24.32-6.65,0.55-10.26,0.83Z" transform="translate(-760 -95.49)"/><g class="cls-13"><path class="cls-14" d="M931.8,133.58a66.6,66.6,0,0,0-21.49-13.47,82.44,82.44,0,0,0-9.53-2.92" transform="translate(-760 -95.49)"/><path class="cls-14" d="M942.68,147.29a69.42,69.42,0,0,0-4.92-7.15" transform="translate(-760 -95.49)"/></g></svg>