<svg id="Pokémon" xmlns="http://www.w3.org/2000/svg" viewBox="0 0 178.36 213.91"><defs><style>.cls-1,.cls-3,.cls-5{fill:#3d2414;}.cls-1{opacity:0.1;}.cls-2{fill:#fc8e3d;stroke-width:6px;stroke-dasharray:210 10 0 10 1000;}.cls-10,.cls-2,.cls-4,.cls-8,.cls-9{stroke:#3d2414;}.cls-11,.cls-2,.cls-8{stroke-linecap:round;stroke-miterlimit:10;}.cls-3{opacity:0.15;}.cls-4,.cls-6{fill:#fff;}.cls-10,.cls-4,.cls-9{stroke-linejoin:round;}.cls-10,.cls-11,.cls-4,.cls-8,.cls-9{stroke-width:4px;}.cls-7{fill:#2c746d;}.cls-11,.cls-8{fill:none;}.cls-9{fill:#66250c;}.cls-10{fill:#e77374;}.cls-11{stroke:#fff;}.cls-12{opacity:0.5;}</style></defs><title>charmander</title><path class="cls-1" d="M587.14,217.78c-2.73-10.9-.31-36.79-2.13-48.6s-9.06-30.47-28.15-44.46a80.14,80.14,0,0,0-93.73,0c-19.09,14-26.33,32.65-28.15,44.46s0.6,37.7-2.13,48.6-10.68,31.44-.49,47.24c11.26,17.47,46.46,35.43,77.64,35.43s66.38-18,77.64-35.43C597.83,249.22,589.87,228.68,587.14,217.78Z" transform="translate(-427.32 -86.55)"/><path class="cls-2" d="M597.14,197.78c-2.73-10.9-.31-36.79-2.13-48.6s-9.06-30.47-28.15-44.46a80.14,80.14,0,0,0-93.73,0c-19.09,14-26.33,32.65-28.15,44.46s0.6,37.7-2.13,48.6-10.68,31.44-.49,47.24c11.26,17.47,46.46,35.43,77.64,35.43s66.38-18,77.64-35.43C607.83,229.22,599.87,208.68,597.14,197.78Z" transform="translate(-427.32 -86.55)"/><path class="cls-3" d="M530,270.45c-31.17,0-66.38-18-77.64-35.43-10.19-15.81-2.23-36.34.49-47.24s0.31-36.79,2.13-48.6a67.47,67.47,0,0,1,14.68-31.77c-16.51,13.62-23,30.7-24.68,41.77-1.82,11.81.6,37.7-2.13,48.6s-10.68,31.44-.49,47.24c11.26,17.47,46.46,35.43,77.64,35.43,29.93,0,63.57-16.56,76.17-33.35C580.14,259.9,553.89,270.45,530,270.45Z" transform="translate(-427.32 -86.55)"/><path class="cls-4" d="M556.85,200.15a8.3,8.3,0,0,1-9.4-7.52c-0.7-8.19-1.37-20.21-.06-27.09,2.41-12.66,10.22-23.34,20.53-18.87,9.32,4,13,20.7,13.14,42.9a8.3,8.3,0,0,1-7.18,8.25Z" transform="translate(-427.32 -86.55)"/><path class="cls-5" d="M557,154a10.1,10.1,0,0,0-6.25,1.46,38.66,38.66,0,0,0-3.34,10.09c-1.31,6.88-.64,18.9.06,27.09a8.3,8.3,0,0,0,9.4,7.52L572.26,198C574.12,174.72,567.45,155.2,557,154Z" transform="translate(-427.32 -86.55)"/><ellipse class="cls-6" cx="129.26" cy="83.79" rx="4.9" ry="7.91"/><path class="cls-7" d="M564.9,182c-2.54-1.58-2.93,5-6.06,5.51-2.48.39-4.26-6.17-6.81-3.3-1.24,1.4.13,7.31,1.26,11.5a3.28,3.28,0,0,0,3.53,2.46h0l6.2-.85a3.34,3.34,0,0,0,2.89-3.18C566.13,189.05,566.13,182.75,564.9,182Z" transform="translate(-427.32 -86.55)"/><path class="cls-4" d="M483.15,200.15a8.3,8.3,0,0,0,9.4-7.52c0.7-8.19,1.37-20.21.06-27.09-2.41-12.66-10.22-23.34-20.53-18.87-9.32,4-13,20.7-13.14,42.9a8.3,8.3,0,0,0,7.18,8.25Z" transform="translate(-427.32 -86.55)"/><path class="cls-5" d="M483,154a10.1,10.1,0,0,1,6.25,1.46,38.66,38.66,0,0,1,3.34,10.09c1.31,6.88.64,18.9-.06,27.09a8.3,8.3,0,0,1-9.4,7.52L467.74,198C465.88,174.72,472.55,155.2,483,154Z" transform="translate(-427.32 -86.55)"/><ellipse class="cls-6" cx="56.1" cy="83.79" rx="4.9" ry="7.91"/><path class="cls-7" d="M475.1,182c2.54-1.58,2.93,5,6.06,5.51,2.48,0.39,4.26-6.17,6.81-3.3,1.24,1.4-.13,7.31-1.26,11.5a3.28,3.28,0,0,1-3.53,2.46h0l-6.2-.85a3.34,3.34,0,0,1-2.89-3.18C473.87,189.05,473.87,182.75,475.1,182Z" transform="translate(-427.32 -86.55)"/><line class="cls-8" x1="104.13" y1="129.17" x2="106.91" y2="126.4"/><line class="cls-8" x1="81.23" y1="129.17" x2="78.45" y2="126.4"/><path class="cls-9" d="M577.1,227c-1-.75-11.18,8-20,16.67-9.76,8.71-18.18,17.42-37.16,16.67-19,.75-27.76-8-37.78-16.67-9.1-8.71-19.46-17.42-20.52-16.67,1.59-.33,36,9.72,58.29,10C542.26,236.73,575.55,226.68,577.1,227Z" transform="translate(-427.32 -86.55)"/><path class="cls-10" d="M482.17,231.53a93.31,93.31,0,0,1-2.06,10c9.46,10,20.33,19.08,39.82,18.79,20,0.34,30.4-9.35,39.88-19.53-0.93-3-1.69-7-2.19-9.4C546,234,532.28,237,519.93,237,507.75,237,494,234.09,482.17,231.53Z" transform="translate(-427.32 -86.55)"/><path class="cls-4" d="M488.57,237.39c1.17,3.74,5.05,4.76,6.71,1.62,0.75-1.49,1.46-3,2.13-4.4-3.69-.66-7.35-1.39-10.87-2.14A38.1,38.1,0,0,1,488.57,237.39Z" transform="translate(-427.32 -86.55)"/><path class="cls-4" d="M497.86,249.45c-1.21,1.38-2.49,2.74-3.86,4.06a40.16,40.16,0,0,0,9.58,4.46c0.18-1.85.3-3.83,0.35-5.89C504,248.35,500.22,246.65,497.86,249.45Z" transform="translate(-427.32 -86.55)"/><path class="cls-4" d="M551.17,237.39a37.32,37.32,0,0,1,2.11-5c-3.53.77-7.22,1.53-10.94,2.21,0.67,1.44,1.37,2.92,2.12,4.42C546.1,242.15,550,241.13,551.17,237.39Z" transform="translate(-427.32 -86.55)"/><path class="cls-4" d="M545.67,253.44c-1.35-1.3-2.61-2.63-3.8-4-2.37-2.8-6.12-1.1-6.06,2.63,0.06,2.05.2,4,.4,5.88A38.42,38.42,0,0,0,545.67,253.44Z" transform="translate(-427.32 -86.55)"/><path class="cls-11" d="M520,266.4" transform="translate(-427.32 -86.55)"/><g class="cls-12"><path class="cls-11" d="M567.27,123.21A66.6,66.6,0,0,0,547,107.93a82.44,82.44,0,0,0-9.24-3.74" transform="translate(-427.32 -86.55)"/><path class="cls-11" d="M576.93,137.8a69.42,69.42,0,0,0-4.29-7.54" transform="translate(-427.32 -86.55)"/></g></svg>