<svg id="Pokémon" xmlns="http://www.w3.org/2000/svg" viewBox="0 0 255.69 243"><defs><style>.cls-1,.cls-12,.cls-3{fill:#3f321f;}.cls-1{opacity:0.1;}.cls-11,.cls-2{fill:#ffdf1f;stroke-width:6px;}.cls-11,.cls-2,.cls-5,.cls-7,.cls-9{stroke:#3f321f;}.cls-11,.cls-14,.cls-2,.cls-5,.cls-6,.cls-8{stroke-linecap:round;}.cls-11,.cls-14,.cls-15,.cls-2,.cls-6{stroke-miterlimit:10;}.cls-2{stroke-dasharray:210 10 0 10 1000;}.cls-4{fill:#fff;}.cls-14,.cls-15,.cls-5,.cls-6,.cls-8{fill:none;}.cls-5,.cls-7,.cls-8,.cls-9{stroke-linejoin:round;}.cls-14,.cls-5,.cls-6,.cls-7,.cls-8,.cls-9{stroke-width:4px;}.cls-15,.cls-6,.cls-8{stroke:#2a2b2d;}.cls-7{fill:#493c2a;}.cls-9{fill:#e77374;}.cls-10{fill:#ef3a3a;}.cls-12{opacity:0.15;}.cls-13{opacity:0.5;}.cls-14{stroke:#fff;}.cls-15{stroke-width:5px;}</style></defs><title>pikachu</title><path class="cls-1" d="M289.08,149.76c-10.83-3.6-35.68-10-59.43-2.87-16.77,5-27.45,12.55-32.45,16.71a77.24,77.24,0,0,0-7.92-4.34c-14.55-6.93-34.59-7.23-38.44-7.23-3.65,0-21.91.27-36.2,6.23C110,148.23,92,113.75,53.4,85.49c-1.86-1.36-4.7.31-4.74,2.78-0.16,11.41,1.25,37,15.25,57.51a102,102,0,0,0,28.33,28A43.25,43.25,0,0,0,82,194.23c-3.38,16.75-2.31,25-7.43,42.45C71.42,247.52,74.37,272.12,95,286c10.63,7.16,33.24,19,55.84,19s45.21-11.84,55.84-19c20.63-13.89,23.57-38.49,20.39-49.33-5.12-17.46-4.05-25.7-7.43-42.45a44.43,44.43,0,0,0-1.66-6,200.38,200.38,0,0,0,72.32-33.09C292.16,153.75,291.43,150.54,289.08,149.76Z" transform="translate(-48.65 -62)"/><path class="cls-2" d="M237.07,216.68c-5.12-17.46-4.05-25.7-7.43-42.45-3.66-18.16-17.1-28.66-30.36-35-14.55-6.93-34.59-7.23-38.44-7.23s-23.89.3-38.44,7.23c-13.26,6.31-26.7,16.81-30.36,35-3.38,16.75-2.31,25-7.43,42.45C81.42,227.52,84.37,252.12,105,266c10.63,7.16,33.24,19,55.84,19s45.21-11.84,55.84-19C237.3,252.12,240.25,227.52,237.07,216.68Z" transform="translate(-48.65 -62)"/><circle class="cls-3" cx="120.24" cy="204.52" r="12.09" transform="translate(-118.14 0.08) rotate(-22.65)"/><circle class="cls-4" cx="72.71" cy="138.54" r="5.11"/><circle class="cls-3" cx="203.7" cy="204.52" r="12.09" transform="translate(-112.15 251.75) rotate(-67.35)"/><circle class="cls-4" cx="153.92" cy="138.54" r="5.11"/><path class="cls-5" d="M137.82,229.41c1.06,1.51,5,4.44,11.61,5,5.63,0.46,11.09-1.86,12.28-4.54a0.27,0.27,0,0,1,.48,0c1.19,2.68,6.65,5,12.28,4.54,6.63-.55,10.56-3.47,11.61-5" transform="translate(-48.65 -62)"/><path class="cls-6" d="M162,223.27" transform="translate(-48.65 -62)"/><path class="cls-7" d="M161.94,221.55c-2.25,0-5.41-3.15-4.2-5.07s7.12-2,8.4,0S164.2,221.55,161.94,221.55Z" transform="translate(-48.65 -62)"/><path class="cls-7" d="M174.48,234.4c-5.63.46-11.09-1.86-12.28-4.54a0.27,0.27,0,0,0-.48,0c-1.19,2.68-6.65,5-12.28,4.54a22.81,22.81,0,0,1-5.14-1c0,0.35,0,.71,0,1.08,0,12.48,4.46,30.72,17.68,30.72s17.68-18.24,17.68-30.72c0-.37,0-0.73,0-1.08A22.81,22.81,0,0,1,174.48,234.4Z" transform="translate(-48.65 -62)"/><path class="cls-8" d="M162,223.27" transform="translate(-48.65 -62)"/><path class="cls-9" d="M162,240.1c-8.21,0-12.94,5.11-15.27,11,2.61,7.75,7.41,14.08,15.27,14.08s12.66-6.33,15.27-14.08C174.89,245.21,170.17,240.1,162,240.1Z" transform="translate(-48.65 -62)"/><path class="cls-10" d="M219.41,260.8a18.59,18.59,0,1,1,15.86-29.71C234.44,237.3,231.3,250.67,219.41,260.8Z" transform="translate(-48.65 -62)"/><path class="cls-10" d="M102.26,260.8c-11.89-10.13-15-23.5-15.86-29.71A18.59,18.59,0,1,1,102.26,260.8Z" transform="translate(-48.65 -62)"/><path class="cls-11" d="M223.53,169.18a200.12,200.12,0,0,0,76.77-34.06c1.86-1.36,1.13-4.57-1.22-5.36-10.83-3.6-35.68-10-59.43-2.87-24.25,7.3-35.78,19.75-35.78,19.75" transform="translate(-48.65 -62)"/><path class="cls-12" d="M299.08,129.76l-2.32-.74-1.46,1.1a194.34,194.34,0,0,1-72.66,33.17,2,2,0,0,0-1.16,3.14l2.06,2.74a200.12,200.12,0,0,0,76.77-34.06C302.16,133.75,301.43,130.54,299.08,129.76Z" transform="translate(-48.65 -62)"/><path class="cls-3" d="M300.29,135.12a195.35,195.35,0,0,1-20.68,13.19c-3.23-5.84-9.89-15.24-22.61-24.47,17.68-1.14,33.89,3.19,42.07,5.91C301.42,130.54,302.15,133.76,300.29,135.12Z" transform="translate(-48.65 -62)"/><path class="cls-11" d="M125.9,141.13S109.11,99,63.4,65.49c-1.86-1.36-4.7.31-4.74,2.78-0.16,11.41,1.25,37,15.25,57.51,14.3,20.9,31.21,29.73,31.21,29.73" transform="translate(-48.65 -62)"/><path class="cls-3" d="M63.4,65.49A195.35,195.35,0,0,1,82.24,81.21c-4.59,4.85-11.53,14-16.47,29-6.44-16.51-7.22-33.26-7.1-41.89C58.7,65.8,61.54,64.13,63.4,65.49Z" transform="translate(-48.65 -62)"/><path class="cls-12" d="M79.5,122.63c-13.3-19.44-16.45-43-17-57.56a3.29,3.29,0,0,0-3.84,3.19c-0.16,11.41,1.25,37,15.25,57.51,14.3,20.9,31.21,29.73,31.21,29.73l1.73-1.2a2,2,0,0,0,0-3.26A116.78,116.78,0,0,1,79.5,122.63Z" transform="translate(-48.65 -62)"/><g class="cls-13"><path class="cls-14" d="M215.27,175.17c-4.55-11.76-14.17-18.52-23.53-22.58" transform="translate(-48.65 -62)"/><path class="cls-14" d="M219.08,191.2c-0.42-2.42-.89-5-1.51-7.77" transform="translate(-48.65 -62)"/></g><path class="cls-15" d="M160.83,272.26" transform="translate(-48.65 -62)"/><path class="cls-12" d="M226.67,256c-10.63,7.16-33.24,19-55.84,19s-45.2-11.84-55.84-19c-20.63-13.89-23.57-38.49-20.39-49.33,5.12-17.46,4.05-25.7,7.43-42.45a43.75,43.75,0,0,1,2.8-8.89c-0.43-.24-1.32-0.75-2.58-1.55A43.23,43.23,0,0,0,92,174.23c-3.38,16.75-2.31,25-7.43,42.45C81.42,227.52,84.37,252.12,105,266c10.63,7.16,33.24,19,55.84,19s45.21-11.84,55.84-19a47.44,47.44,0,0,0,11.74-11.23C227.84,255.19,227.27,255.6,226.67,256Z" transform="translate(-48.65 -62)"/></svg>