<svg id="Pokémon" xmlns="http://www.w3.org/2000/svg" viewBox="0 0 213 200.41"><defs><style>.cls-1,.cls-3,.cls-5{fill:#223837;}.cls-1{opacity:0.1;}.cls-10,.cls-2{fill:#99d4d3;}.cls-10,.cls-11,.cls-2,.cls-4,.cls-5,.cls-7,.cls-8,.cls-9{stroke:#223837;}.cls-10,.cls-11,.cls-13,.cls-2{stroke-linecap:round;}.cls-10,.cls-11,.cls-13,.cls-2,.cls-8{stroke-miterlimit:10;}.cls-2{stroke-width:6px;stroke-dasharray:210 10 0 10 1000;}.cls-3{opacity:0.15;}.cls-4,.cls-6{fill:#fff;}.cls-4,.cls-5,.cls-7,.cls-9{stroke-linejoin:round;}.cls-10,.cls-11,.cls-13,.cls-4,.cls-5,.cls-7,.cls-8,.cls-9{stroke-width:4px;}.cls-7{fill:#bf3d59;}.cls-8{fill:#224c49;}.cls-9{fill:#e77374;}.cls-11,.cls-13{fill:none;}.cls-12{opacity:0.5;}.cls-13{stroke:#fff;}</style></defs><title>squirtle</title><path class="cls-1" d="M1309.94,207.29c0-50.25-45-91-99.94-91s-99.94,40.75-99.94,91c0,9.91-.69,21.56,2.54,30.2,13.13,35.19,53.87,56.21,97.4,56.21s84.27-21,97.4-56.21C1310.62,228.85,1309.94,217.2,1309.94,207.29Z" transform="translate(-1110 -93.3)"/><path class="cls-2" d="M1319.94,187.29c0-50.25-45-91-99.94-91s-99.94,40.75-99.94,91c0,9.91-.69,21.56,2.54,30.2,13.13,35.19,53.87,56.21,97.4,56.21s84.27-21,97.4-56.21C1320.62,208.85,1319.94,197.2,1319.94,187.29Z" transform="translate(-1110 -93.3)"/><path class="cls-3" d="M1230,261.7c-43.53,0-84.27-21-97.4-56.21-3.22-8.64-2.54-20.29-2.54-30.2a84.6,84.6,0,0,1,15.55-48.68c-15.86,16.1-25.55,37.36-25.55,60.68,0,9.91-.69,21.56,2.54,30.2,13.13,35.19,53.87,56.21,97.4,56.21,37.1,0,72.15-15.28,89.84-41.57C1290.63,251,1261,261.7,1230,261.7Z" transform="translate(-1110 -93.3)"/><path class="cls-4" d="M1259.77,202.57a5.73,5.73,0,0,1-4.68-5.14c-0.85-10.08-1.87-35.58,8.19-47.61,12.7-15.18,26.69,4.88,30.3,18.14a84.9,84.9,0,0,1,3.16,23.78,5.72,5.72,0,0,1-2.15,4.31C1290.32,199.5,1279.18,206.15,1259.77,202.57Z" transform="translate(-1110 -93.3)"/><path class="cls-5" d="M1285.81,201a63.85,63.85,0,0,0,1.23-9.16c1.21-19.7-6.58-36.22-17.39-36.88-4.37-.27-8.56,2.09-12.08,6.29-3.83,12.68-3.11,28.73-2.47,36.23a5.73,5.73,0,0,0,4.68,5.14C1271.25,204.69,1279.82,203.22,1285.81,201Z" transform="translate(-1110 -93.3)"/><ellipse class="cls-6" cx="157.17" cy="77.98" rx="4.92" ry="7.97"/><path class="cls-7" d="M1280.53,178.89c-4.17-2.66-2.81,8.8-9.95,10.38-8.16,1.81-8.73-11.86-12.3-6.56-2.63,3.89-.88,12.46.42,19.55a5.73,5.73,0,0,0,1.08.32c10.49,1.93,18.54.87,24.41-1.05C1284.62,190.53,1282.54,180.17,1280.53,178.89Z" transform="translate(-1110 -93.3)"/><path class="cls-4" d="M1180.23,202.57a5.73,5.73,0,0,0,4.68-5.14c0.85-10.08,1.87-35.58-8.19-47.61-12.7-15.18-26.69,4.88-30.3,18.14a84.9,84.9,0,0,0-3.16,23.78,5.72,5.72,0,0,0,2.15,4.31C1149.68,199.5,1160.82,206.15,1180.23,202.57Z" transform="translate(-1110 -93.3)"/><path class="cls-5" d="M1154.19,201a63.85,63.85,0,0,1-1.23-9.16c-1.21-19.7,6.58-36.22,17.39-36.88,4.37-.27,8.56,2.09,12.08,6.29,3.83,12.68,3.11,28.73,2.47,36.23a5.73,5.73,0,0,1-4.68,5.14C1168.75,204.69,1160.18,203.22,1154.19,201Z" transform="translate(-1110 -93.3)"/><ellipse class="cls-6" cx="62.83" cy="77.98" rx="4.92" ry="7.97"/><path class="cls-7" d="M1159.47,178.89c4.17-2.66,2.81,8.8,9.95,10.38,8.16,1.81,8.73-11.86,12.3-6.56,2.63,3.89.88,12.46-.42,19.55a5.73,5.73,0,0,1-1.08.32c-10.49,1.93-18.54.87-24.41-1.05C1155.38,190.53,1157.46,180.17,1159.47,178.89Z" transform="translate(-1110 -93.3)"/><path class="cls-8" d="M1261.85,221.43c-15.46,1.74-41.69,7.77-41.69,7.77s-24.36-6-41.69-7.77c-9.8-1-18.09-1.36-25.68-5.44,0.88,16.33,30.7,43.2,67.37,43.2s66.52-26.9,67.38-43.22C1279.94,220,1271.65,220.33,1261.85,221.43Z" transform="translate(-1110 -93.3)"/><path class="cls-9" d="M1268.3,220.75c-2.08.22-4.23,0.43-6.45,0.68-15.46,1.74-41.69,7.77-41.69,7.77s-24.36-6-41.69-7.77l-6.55-.64a41.4,41.4,0,0,0-10.19,12.81c11.65,13.12,33.44,25.59,58.42,25.59s46.78-12.47,58.42-25.59A41.39,41.39,0,0,0,1268.3,220.75Z" transform="translate(-1110 -93.3)"/><path class="cls-10" d="M1294.66,210.77c-9.54,9.14-19.86,9.2-32.81,10.66-15.46,1.74-41.69,7.77-41.69,7.77s-24.36-6-41.69-7.77c-13-1.3-23.27-1.52-32.81-10.66" transform="translate(-1110 -93.3)"/><line class="cls-11" x1="120.25" y1="118.72" x2="122.73" y2="116.23"/><line class="cls-11" x1="99.75" y1="118.72" x2="97.27" y2="116.23"/><g class="cls-12"><path class="cls-13" d="M1285.72,136.49A66.6,66.6,0,0,0,1264.22,123a82.44,82.44,0,0,0-9.53-2.92" transform="translate(-1110 -93.3)"/><path class="cls-13" d="M1296.61,150.2a69.42,69.42,0,0,0-4.92-7.15" transform="translate(-1110 -93.3)"/></g></svg>